<svg width="1440" height="216" viewBox="0 0 1440 216" fill="none" xmlns="http://www.w3.org/2000/svg">
<path fill-rule="evenodd" clip-rule="evenodd" d="M1440 144L1399.93 120C1358.65 96 1278.52 48 1197.17 30C1115.82 12 1035.68 24 954.333 48C872.984 72 792.849 108 711.5 126C630.151 144 550.016 144 468.667 150C387.318 156 307.183 168 225.833 180C144.484 192 64.3494 204 23.0676 210L-16.9999 216V0H23.0676C64.3494 0 144.484 0 225.833 0C307.183 0 387.318 0 468.667 0C550.016 0 630.151 0 711.5 0C792.849 0 872.984 0 954.333 0C1035.68 0 1115.82 0 1197.17 0C1278.52 0 1358.65 0 1399.93 0H1440V144Z" fill="#FFF9F2"/>
</svg>
