<svg width="1440" height="148" viewBox="0 0 1440 148" fill="none" xmlns="http://www.w3.org/2000/svg">
<path fill-rule="evenodd" clip-rule="evenodd" d="M0 0.695312L56.1039 18.4663C121.558 36.2373 243.117 71.7792 364.675 67.3364C476.883 62.8937 598.441 22.909 720 27.3518C841.558 27.3518 963.117 76.2219 1084.68 85.1074C1196.88 98.4356 1318.44 71.7792 1383.9 54.0082L1440 40.68V165.077H1383.9C1318.44 165.077 1196.88 165.077 1084.68 165.077C963.117 165.077 841.558 165.077 720 165.077C598.441 165.077 476.883 165.077 364.675 165.077C243.117 165.077 121.558 165.077 56.1039 165.077H0V0.695312Z" fill="#FFF9F2"/>
</svg>
